<svg version="1.0" xmlns="http://www.w3.org/2000/svg" width="792" height="274.667" viewBox="0 0 594 206">
    <path d="M75 3c0 .5.4 1 1 1 .5 0 1.7 1.6 2.5 3.6 1.2 3 1.5 9.4 1.5 35.9 0 29.4-.1 32.3-1.7 33.7-2.5 2-14.3 8.8-15.4 8.8-1.2 0-.8-73.8.5-76.3.8-1.6-.2-1.7-13.8-1.7-8 0-14.6.2-14.6.5s1 1.9 2.2 3.6c2.1 2.8 2.2 4.1 3 37.6.5 19.1.5 35 .1 35.4-1.3 1.3-7.4-2.3-9.5-5.5-1.5-2.4-1.8-4.2-1.4-7.9.6-5.1.2-5.5-3.2-3.1-3 2.1-3 8.6.1 13.8 2.4 3.8 9.8 9.6 12.4 9.6 1.2 0 1.4 4 1.1 24.6l-.3 24.6-3.2 2.8c-1.7 1.6-2.9 3.1-2.6 3.4.4.3 8.5.6 18.2.6 16.9-.1 17.5-.1 15.5-1.8-4.3-3.6-4.8-5.9-5.2-26.9-.3-11.1-.2-21.2.1-22.5.4-1.5 2.1-2.9 5.2-4.2 2.5-1 6.1-2.9 8.1-4.2 1.9-1.3 3.7-2.4 3.9-2.4.3 0 .5 13.9.5 30.9v30.8l-2.5 3.8c-1.5 2-2.3 4-2 4.4.9.8 29.5 1.4 29.5.6 0-.3-.8-1.8-1.9-3.3-1.7-2.5-2-6.2-3-42.2-1-37.9-1-39.6.8-41.3 2.4-2.5 8.4-2.6 11-.3 2 1.8 2 1.8 2.6-1 1.1-4.7 1.4-5.4 2.4-5.4 1.8 0 2.4 7 1.8 20.4-.3 7.2-.3 28.6.1 47.6l.7 34.5 8.8 14.6c4.8 8.1 9.4 15.2 10.3 15.9 1.9 1.7 4.9.1 11.5-5.8 3.4-3 6.1-6.9 9.4-13.7 2.6-5.2 5.2-9.5 5.9-9.5.6 0 3.8 4.5 7.1 10 13.8 23 13.3 22.9 24.4 5 4.5-7.2 8.1-13.2 8.1-13.5 0-.2 2.8-4.8 6.3-10.2l6.2-9.8-.4-35.5c-.4-39.3 0-43.2 4.7-44.8 1.9-.7-1.8-1-13.5-1.1h-16.2l2.3 3.4c3.4 5 3.9 11.1 3.8 48.4l-.2 33.4-4.6 7.5c-2.6 4.1-6.1 9.1-7.8 11l-3 3.4-1.3-3.8c-.7-2-2.6-5.8-4.2-8.3l-2.9-4.6-.7-35.2c-.6-29.4-1-35.7-2.4-38.9l-1.7-3.7-1.8 2.9c-1 1.6-3.7 5.3-5.8 8.1l-4 5.3.7 25.9.7 25.9-5.8 11.1c-6.2 11.7-8.2 13.3-11.7 9.3-2.5-2.8-3.7-23.7-3.7-65.9V63.8l3-2.8 3-2.8-6.7-.8c-12.3-1.5-27.7-.7-32.9 1.6-2.6 1.1-4.8 2-4.9 2-.2 0-.3-11.4-.4-25.3l-.2-25.3 3.1-4.2 3-4.2H90c-9.3 0-15 .4-15 1zM193.8 7.3c-7.4 3.4-11.8 12.3-9.8 19.6 2.1 8 10.1 14 18.5 14.1 4.1 0 4.1 0 10.8 10.4l6.8 10.5 8.7 2c9.9 2.2 20.2 3.6 20.2 2.7 0-.7-5-8.8-5.9-9.6-.3-.3-1.9-2.2-3.4-4.2-4.1-5.5-8.3-9.3-16.2-14.5-3.8-2.6-7.2-4.8-7.4-5-.2-.2.2-1.4.9-2.7.9-1.7 1.1-4.9.8-10-.3-4.2-.3-7.6-.1-7.6 3.2 0 13.9 9.6 18.8 17 5.7 8.5 11.1 13.6 15.5 14.5 6.4 1.3 18.4 6.4 24.4 10.4 3.3 2.2 6.3 3.8 6.7 3.5 1.1-.6-.5-5.3-4.4-13.7-6.2-12.7-20.3-24.7-36.8-31.2-9.2-3.7-13.1-4.5-24.9-5.6-5.8-.5-12.7-1.1-15.5-1.3-2.9-.3-6.1 0-7.7.7z"/>
    <path d="M229.7 35.7c-1.2 1.2-.8 1.8 7.7 10.6 16 16.6 23.3 36.7 20.6 56.8-1.9 14.4-6.2 25.6-15.8 40.4-4.8 7.6-18.3 21.5-25 26-2.4 1.5-4 3-3.8 3.2.2.3 5.1-2.7 10.8-6.5 21.3-14.4 35.4-33.3 40.8-54.6 4.4-17.2.9-38.8-8.4-52.9-9.5-14.3-23.6-26.4-26.9-23zM450.1 40.5c-1.2 3.1-2.1 6.2-2.1 6.9 0 .8 1.6 3.3 3.5 5.5 3.5 4.3 3.7 6.6.4 7.6-1.1.4-2.6 2.1-3.3 3.9-.8 1.8-4.1 6.4-7.5 10.1-5.8 6.4-7.6 10.5-5.1 12 .5.3 1.7 3 2.5 6 1.1 3.6 2.3 5.6 3.5 6 1.8.6 1.9.8.4 3.1-.9 1.3-1.9 2.4-2.3 2.4-1.6 0-11.1-24.6-11.1-28.9 0-1.8-.6-2.1-4.5-2.1-2.5 0-4.5.2-4.5.5 0 .2.9 2.4 1.9 4.7 3.4 7.5 8.8 21 12.1 30.5 1.8 5.1 3.6 9.3 3.9 9.3.4 0 2.3-3.2 4.1-7.1 1.9-3.8 4-7.5 4.7-8 1.6-1.4 5.8 5.1 7.4 11.3 1.1 4.6 2.2 5.8 3.3 3.9.5-.8-.6-3.5-5.6-13.4-1.1-2.1-1.7-4.2-1.3-4.5 1.2-1.2 5.3 4.6 7.4 10.5 1.2 3.2 2.4 6.5 2.7 7.3.5 1.2.8 1.1 1.5-.5 2-4.9 7.8-21.3 8.4-24 .4-1.7 2.2-6.6 4.1-11.1 1.9-4.5 3.4-8.4 3.4-8.8 0-.3-1.8-.6-4-.6-3.6 0-4 .2-4 2.6 0 2.9-7.7 26.3-9.1 27.8-1 1.1-6.9-4.1-6.9-6.1 0-.7 1.4-2.2 3.1-3.2 2.9-1.8 6.5-6.9 5.5-7.8-.2-.3-1.3.3-2.3 1.2-1 .9-3.9 3-6.6 4.7-4.5 2.9-4.8 2.9-7.2 1.4-1.4-.9-2.5-2.1-2.5-2.6s3.2-3.1 7.2-5.7c9.3-6.2 13.8-12 13.8-17.6-.1-6.9-4.5-14.7-8.7-15.3-3.3-.5-4.4-3.6-3.8-10.7.4-3.7.4-6.7.1-6.7-.2 0-1.4 2.5-2.5 5.5zm10.6 23.8c-.7 2.5-6.9 9.2-16.1 17-4.3 3.7-5.7 4.5-6.2 3.4-1.2-3.3 5.2-11.5 12.7-16.2 5.2-3.3 6.3-4.4 7.2-6.9 1.1-2.8 3.1-.4 2.4 2.7zM261 63.7c.1 2.3 3 4.3 6.1 4.3h3.4l-4-2.5c-4.2-2.6-5.5-3-5.5-1.8zM316.9 67.4c-.2.2-.1 5.5.2 11.8.4 7.9 1.1 12.3 2.3 14.6 1 1.9 1.5 3.6 1.2 3.9-.2.3-2.4-.8-4.8-2.4-5.5-3.8-10-5.3-15.6-5.3h-4.4l.3-8.5.4-8.5h-8v44h8l-.3-13-.3-13.1 2.8.7c4 1 10.2 4.2 14.6 7.6l3.7 3v11.9c0 6.7-.5 12.9-1.1 14.1-1.4 2.6-1.1 2.8 3.7 2.1l4-.5-.4-8.9c-.3-4.8-.2-9.6.2-10.4.5-1.5.9-1.4 3.2.4 1.5 1.2 2.9 2 3.1 1.8.2-.2-1.3-3.3-3.3-6.8l-3.6-6.4.4-16.2.3-16.3h-3.1c-1.7 0-3.3.2-3.5.4zM347.9 74.4c-5.9 2.1-9.6 5.3-12.3 10.8-8.2 16.4 3.7 34.6 21 32.2 5.4-.8 13.3-6.8 15.7-11.9 2.7-5.7 2.7-15.8-.1-21.2-4.8-9.2-14.8-13.3-24.3-9.9zm12.7 3.7c4 2.4 5.2 4.4 7 11.4 2 7.3 1.7 11.5-1.1 17.1-3.2 6.3-6.8 8.9-12.2 8.9-6.6 0-10.7-4.8-14.4-16.9-1.8-5.7-1.8-6.1.1-11.4 2.1-5.9 4.3-9 7.5-10.3 3.7-1.5 9.7-1 13.1 1.2z"/>
    <path d="M351.7 91.9c-1.7 3.7-1.7 4 0 7 2.2 3.8 2.8 3.9 4.1.2 1-2.7-.4-11.1-1.8-11.1-.3 0-1.3 1.8-2.3 3.9zM492.8 74.7c-.9 1-2.3 3.8-3.1 6.3-.9 2.5-4.1 11-7.2 19-7.5 19.3-7.2 17.8-3.8 17.3 2.5-.4 3.1-1.2 4.4-5.6 1.9-6.5 4.2-7.8 12.9-7.5l6.5.3 2 6.2c2 6.2 2 6.3 5.8 6.3 2 0 3.7-.2 3.7-.3 0-.2-.7-1.7-1.5-3.4-1.3-2.6-5-12.5-12.4-33-2.7-7.7-4.4-8.9-7.3-5.6zm4.8 16c1.9 4.9 3.4 9.1 3.4 9.5 0 .3-2.1.8-4.7 1.1-2.7.2-5.8.8-7 1.2-1.9.6-2.3.4-2.3-1.4 0-1.1.9-4 1.9-6.3 1.1-2.4 2.5-6.5 3.2-9.1.6-2.6 1.4-4.5 1.7-4.2.3.3 2 4.4 3.8 9.2zM518 74c.8.5 2.5 1 3.7 1 1.7 0 2.3.8 2.8 3.2.9 4.7.2 35-.9 37-.7 1.6-.3 1.8 3.3 1.8h4.1V77.2l3-.7c6.4-1.4 13 3.1 13 8.9 0 3.8-4 7.6-9.2 9l-4.6 1.1 3.5 3.5c3 3 3.5 3.2 3 1.3-.3-1.5-.1-2 .9-1.6.8.3 1.4 1.1 1.4 1.9 0 2.5 4.7 11.9 7.1 14 1.4 1.3 4.1 2.3 6.7 2.6 4.7.4 5.4-.2 2-1.7-1.3-.6-4.2-4.4-6.6-8.5-2.3-4.1-5.2-8.2-6.3-9.1-2.2-1.7-1.9-3.9.6-3.9.7 0 2.5-1.4 3.9-3.1 5.3-6.2 2.8-13.4-5.7-16.6-3.9-1.4-27.9-1.7-25.7-.3zM564.7 90.7c.3 10.4.1 19.6-.5 22l-1 4.3h5c3.9 0 4.8-.3 4.1-1.3-1.2-1.4-2.3-31.7-1.4-36.2.6-2.9.9-3 5.1-2.7 7.8.6 11 3.2 11 8.9 0 3.1-5.3 8.3-8.5 8.3-1.3 0-2.7.4-3 1-1.1 1.8 4.9 1 8.5-1.1 6.5-3.9 8-5.9 8-10.5 0-3.5-.5-4.6-2.8-6.3-3.8-2.6-10.1-4-18.4-4.1h-6.7l.6 17.7zM391.4 76.3c-3.6 1.8-6.2 3.9-8.5 7.3-3.1 4.5-3.3 5.5-3.2 11.9.2 8.5 2.1 13.4 6.9 17.3 6.7 5.6 21.4 6.8 27.3 2.4 2.5-1.8 2.6-2.3 2.3-9.8-.2-4.4-.7-8.3-1.1-8.7-1.2-1.2-12.1.4-12.1 1.8s5.6 6.5 7.1 6.5c.5 0 .9 1.3.9 2.8 0 4.2-2.8 6.2-8.7 6.2-8.2 0-14.1-5.1-16.5-14.2-1-4-.9-5.5.5-10.1 2.1-6.8 5.3-10.2 10.6-11.7 3.2-.8 4.8-.8 7.8.5 4.2 1.8 8.3 5.2 8.3 7 0 .6.7 2 1.5 3.1 1.3 1.7 1.4 1.5 1.5-3.3 0-5-.1-5.2-4.6-7.8-6.6-3.9-13.5-4.3-20-1.2zm18.4 25.7.4 2.5-2.1-2.2c-2.6-2.7-2.7-3.6-.3-3.1.9.2 1.8 1.4 2 2.8zM463.6 82.6c-.4.9-.4 1.9-.1 2.2.2.3.7-.3 1.1-1.2.4-.9.4-1.9.1-2.2-.2-.3-.7.3-1.1 1.2zM280.9 94.3c-4 2.7-7.9 8.2-7.9 11.1 0 1.5.9.5 3-3.1 1.9-3.3 4.5-6.1 7.2-7.7 2.4-1.4 3.6-2.6 2.7-2.6-.9 0-3.1 1-5 2.3zM19.1 117.7c-15.7 17.4-22 43.4-14.6 59.9 4.8 10.8 19.7 21 37 25.4 10.6 2.6 28.7 2.7 40 0l8-1.8-10.5-.1c-19.1-.2-31.8-2.9-45.5-9.5-17.7-8.5-23.5-17-24.3-35.3-.4-8.4-.1-11.3 1.7-17.2 3.1-10.3 8.9-20.1 14.1-24 3.2-2.3 3.9-4.1 1.6-4.1-.8 0-4.2 3-7.5 6.7z"/>
</svg>
