<svg version="1.0" xmlns="http://www.w3.org/2000/svg" width="5332" height="1413.333" viewBox="0 0 3999 1060">
    <path d="M44.4 1.9C36 5.7 34.2 11 33.4 35c-1.3 36 4.8 66.7 18.9 94.6 11.5 22.7 25.4 40.2 53 66.7 10.4 10 21.8 22 25.3 26.7 7.5 9.9 19 32.4 23.4 45.7 18.1 54.8 22 127.8 13.5 251.8-6.9 100.7-7.9 119.5-8 146 0 16.6.5 30.7 1.3 36.5 6.1 44.8 16.5 79.3 34.4 114.3 13.8 26.8 30.1 49.1 52.3 71.2 20.6 20.7 39.7 34.6 63.7 46.5 18.3 9 44.8 17.6 44.8 14.5 0-.3-2.1-4.7-4.6-9.8-12.8-25.3-19.9-53.2-23.9-93.6-1.7-17.1-1.9-25.9-.5-22.6.4 1.1 2.7 8.1 5 15.5 30.8 99.3 93.5 163.2 191.4 195.1 33.5 10.9 72.4 18.6 114.1 22.3 42.8 3.9 88 4.8 102.6 2 30.2-5.7 47-17.3 44.5-30.6-1.8-9.5-14.6-19.7-41.5-33.1-22.9-11.5-29.9-15.5-46.6-26.8-37.5-25.5-70.9-57.6-97-93.4-8.3-11.4-17.5-26-17.5-27.8 0-2.3 11.8 8.1 31.5 27.9 23.7 23.8 32.5 31.9 47.8 43.8 19.6 15.2 45 32.1 61.2 40.6l7 3.7 34 .7c18.7.4 53.1 1.1 76.5 1.6 47.1 1.1 181.4 3.3 311 5.1 128.3 1.8 266.9-.7 316.5-5.7 29.6-2.9 43.8-6.4 46.5-11.3 3.9-7.3-5.8-19.6-25.2-31.7-5.1-3.2-21.9-13.9-37.3-23.8-63.1-40.5-91.9-52.7-141-59.5-32.9-4.6-37.7-5.1-47.6-5-17.7.1-41.7 2.3-43.2 3.9-.8.8-2.4 4.4-3.7 8-1.2 3.6-3.2 8.1-4.3 10-2.7 4.6-10.8 15-11.7 15-.3 0-.4-7.6-.2-16.8.6-21.4-.6-28.6-6.4-40.1-13.3-26.4-37.8-46-79.9-64.2-12.5-5.4-61.6-22-76.7-25.9-4.8-1.3-8.6-2.7-8.5-3.3.3-1.5-11.2-4-46.8-10.3-147.9-26.2-248.4-62.7-321.5-117-24.6-18.2-40.7-32.2-68.8-59.8-43.3-42.5-67-75-91.1-124.8-17.3-35.6-31.1-74.5-42-118.3-6.1-24.6-11.1-50.5-19.5-101.6-6.3-37.7-12.6-59.6-24.1-83.7-19.2-39.9-46.8-68.3-80.7-82.8-21.5-9.2-40.9-12.8-68.3-12.8-21.2 0-31.9 1.3-54.5 7-20.6 5.1-26.4 5.7-46 5.1-20.2-.7-31-2.6-59.5-10.7-27.4-7.9-37.7-10-48-10-6.6 0-10.1.5-13.1 1.9zm249.4 56.3c2 2 1.4 5.7-1 6.8-4.3 1.8-63.8 13.1-65.7 12.5-1.1-.3-2.2-1.3-2.5-2.1-.6-1.6.9-5.4 2.2-5.4.4-.1 14.7-3 31.7-6.4 35-7.2 33.7-7 35.3-5.4zm-15.7 24.5c5.8 3.1 10.1 8.7 11.9 15.3 3.8 14-8.3 29.3-23 29.3-21.2-.1-32.2-25-17.7-40.1 8.1-8.5 18.5-10.1 28.8-4.5z"/>
    <path d="M727.9 42.5c-14.5 2-29.3 5.9-44.6 11.6-31.8 11.8-39.6 13.3-66.3 13.3-15 0-22.7-.6-33.5-2.3-31.3-4.9-42.5-6.2-52.5-6.4-11.8-.1-17.5 1.2-22 4.9-5.6 4.7-6.5 7.6-6.2 20.4.7 37.6 11.3 74.3 29.6 102.8 13.8 21.4 38.3 45.5 65.1 63.9 12.7 8.7 22 16.8 29.6 26 20.4 24.2 35.4 57.4 45.9 101.4l2.3 9.6-18.8 35.9c-26.1 49.9-32.9 61.8-47.3 82.1l-5.1 7.2 11.7 11.2c76.6 73.2 162.9 115.4 299.7 146.4 21.6 4.9 46.3 9.9 61.5 12.5 6.9 1.1 22.1 3.9 33.8 6.2 11.7 2.2 21.4 3.9 21.6 3.7 1.2-1.2 2.7-37.2 2.1-50.4-1.2-27.4-3.1-38.8-25-154.5-4.7-24.5-9.8-52.4-11.5-62.1-3.3-19.4-6.2-29.8-11-40.3-1.7-3.8-8-21.4-13.9-39-6-17.7-13-37.5-15.6-44.1-6.8-17-16.3-45.6-25.6-77-11.9-40.3-16.6-54.9-21.4-66.7-11.4-27.8-25.6-50.3-44-69.6-23.4-24.6-47.8-38.5-79.7-45.3-12.3-2.7-44.8-3.5-58.9-1.4zM760 91c.6 1 .7 2.5.4 3.4-.4.9-12.5 5.5-32.7 12.2-34.1 11.4-35.2 11.5-35.2 5.8v-2.9l32-10.6c17.6-5.8 32.6-10.4 33.3-10.1.7.2 1.7 1.2 2.2 2.2zm-7.5 23.4c5.9 2.5 10.3 6.5 13 11.9 9.3 18.7-8.3 39.3-28.7 33.3-21.2-6.2-24.1-35-4.4-44.2 6-2.8 14.8-3.2 20.1-1zM1092.1 54.7c-4.4 2.3-5 4.5-5.3 19.8-.3 11.8-.2 12.1 2.8 17.5 5.8 10.2 10.1 11.7 38.7 13.5l10.7.7-.5 6.1c-1.1 11.6-34.5 536.2-34.5 541.3 0 5.6 2.4 10.1 7.1 13.6 3.3 2.5 13.7 3.8 32.8 4.1l14.9.2 3.8-3.1c2.4-1.9 4.4-4.6 5.2-7 .8-2.5 7.7-105.2 18.7-277.3 9.6-150.4 17.6-273.5 17.7-273.6.2-.1 7.8.3 16.9.8 18.9 1.1 21.8.8 28.1-3.2 6.9-4.4 9.6-10.8 10.8-25.4 1.1-13.4.5-16.1-4.2-18.2-2.4-1.1-22.4-2.6-75.8-6-39.9-2.4-75.2-4.7-78.5-5-4.6-.4-6.8-.1-9.4 1.2zM1327.7 70.6c-7.2 2.3-13.2 8.7-14.6 15.5-1.6 8.1-37.9 578.8-37 582.8.9 4 5.2 8.8 9.7 10.8 2.1.8 10.6 1.8 22.5 2.5 18.9 1.1 19.3 1.1 23.5-1.1 4.9-2.5 7.9-6.8 8.7-12.6.7-5.7 37.5-581.1 37.5-587.2 0-9.8-2.6-10.8-29.8-11.7-12.6-.5-16.6-.3-20.5 1zM1449 77.3c-1.4.7-3 2.4-3.6 3.7-1.8 3.9-39.8 600.5-38.4 603 2.5 4.7 2.7 4.7 67.8 9 74.4 4.8 73.2 4.8 76.8 1.7 2.6-2.2 2.8-3 3.3-13.3.4-6 .3-13.1-.1-15.8-1.4-9.6-8.8-16.8-18.8-18.5-3-.5-18.1-1.7-33.5-2.6-15.4-1-28.1-1.9-28.3-2-.2-.1 7.5-122.3 17.1-271.4 12.9-200 17.2-272.3 16.5-275.5-2.2-10.2-11.6-16.2-27.7-17.6-21.9-1.9-28.5-2.1-31.1-.7zM1593.4 85.7c-1.2.2-3.1 1.4-4.3 2.7-1.8 1.9-2.2 3.9-2.7 14.3-.8 14.7.2 19.5 5.7 25.7 5.5 6.2 9.1 7.3 28.5 8.6 9.3.7 17.1 1.3 17.3 1.5.2.2-7.6 124.1-17.3 275.3-9.7 151.2-17.4 275.7-17 276.8 1.4 3.9 4.7 7.5 8.4 9.4 3.2 1.6 7.6 2.2 23.3 3.2 19.2 1.2 19.3 1.2 24-1.1 2.7-1.3 5.5-3.6 6.7-5.6 2-3.2 3-18.4 19.8-278.9 17.4-271.8 17.7-275.5 19.7-275 1.1.3 10.2.6 20.1.7l18.2.2 4.3-3c8.4-5.9 10.5-10.9 11.5-28.3.7-10.8.6-11.3-1.6-13.7-1.3-1.4-3.7-2.7-5.4-3-1.7-.3-35.3-2.5-74.6-5-39.3-2.4-74-4.6-77-4.8-3-.3-6.5-.3-7.6 0zM1815.5 102.4c-1.6 1.6-2.5 3.9-2.9 7.7-1 9.5-37.6 585.2-37.6 591.6 0 7.2 1.7 9.8 7.2 10.7 3.3.6 126.9 8.6 132.1 8.6 1.8 0 3.9-1.1 5.6-2.8 2.7-2.6 2.9-3.5 3.6-14.4.9-14.6-.6-20.6-6.5-26.6-5.7-6-9.9-6.8-44.2-9-16.4-1-29.9-2-30.2-2.3-.4-.5 14.1-227 14.7-227.5.2-.2 12.3.3 26.9 1.3 21.9 1.4 27.3 1.4 31 .4 5.7-1.6 11.2-6.1 13.9-11.2 3.2-6.4 5.2-28.6 2.9-32.8-.5-1-2.2-2.3-3.7-2.9-1.5-.6-17.4-2.1-35.3-3.2-17.8-1.2-32.5-2.2-32.6-2.3-.3-.2 14.7-234.2 14.9-234.3.1 0 14.4.9 31.8 2 36.7 2.3 38.5 2.1 45.5-4.9 5.3-5.4 7.1-11 8-25 .6-10.3.5-11.2-1.5-13.7-1.3-1.5-3.6-3-5.4-3.3-3.7-.6-125.1-8.5-131.5-8.5-3.2 0-4.9.6-6.7 2.4zM2017.8 114.1c-1 .5-2.3 2-2.9 3.2-.8 1.4-8.2 111.1-20.4 301.2-21.3 331.1-20.2 304.4-12.8 306.4 6.7 1.8 88.4 6.4 103.8 5.8 41.4-1.6 69.3-21.7 76.9-55.3C2164 668 2194 210 2194 192.1c0-15.5-4.9-29.8-14.2-41.4-13.3-16.8-34.5-27.6-61-31.2-10.9-1.5-84.7-6.5-94.5-6.5-2.6 0-5.6.5-6.5 1.1zm82.7 54c14.5 1.2 20.3 3.8 24.5 11.2 1.6 2.9 3.2 7 3.5 9.2.4 2.2-6.1 109.3-14.4 238.1-11.4 176.5-15.4 235.1-16.6 238.4-2.1 6-5.9 10.6-10.8 13.3-3.8 2-5.5 2.2-18.3 2.1-7.8-.1-16.7-.5-19.8-.8l-5.7-.8.6-5.6c.5-4.9 32.5-503.1 32.5-505.9 0-1.1 3.9-1 24.5.8zM2958 122.6c-30.1 3.5-45.3 9.7-59.6 23.8-8.8 8.8-13 16-16.1 27.6-1.7 6.1-1.8 19.7-1.8 236.5v230l2.7 8c8.2 24.1 28.4 39.9 59.9 46.6 14.9 3.2 43.7 3.2 58.8 0 26.9-5.7 45-17.9 54.1-36.4 7.5-15.3 7.1 2.4 6.8-252.2-.3-218.6-.4-228.2-2.1-233.5-10.7-31.9-40.3-49.4-85.2-50.5-7.7-.2-15.6-.1-17.5.1zm28.8 49.1c4.4 2.2 6.1 3.9 8.6 8.3l3.1 5.5v449l-2.2 4.1c-2.7 5.1-8 9.8-13 11.5-4.9 1.8-18.7 1.8-23.6 0-5.2-1.8-10.6-6.7-12.8-11.6-1.8-3.8-1.9-13.5-1.9-227.5 0-152.9.3-224.7 1.1-227.3 1.2-4.3 5.9-10.1 10-12.3 8.4-4.3 22.1-4.2 30.7.3zM3200.5 123.1c-31.6 3.5-55.2 17.3-65.8 38.4-1.3 2.7-3.3 7.5-4.3 10.5-1.8 5.3-1.9 14.2-2.2 234-.3 253.8-.7 237.5 6.4 252 5.5 11.2 16.8 22 29.7 28.4l9.7 4.8v10.2c.1 17.8 3 24.5 12.9 29.3 5.5 2.7 6.1 2.8 25.9 3.1l20.2.3 3-2.9 3-3v-31.9l5.3-.6c14-1.7 29.5-7.5 40.2-15.2 12.2-8.7 20.1-19.9 24.2-34.5 1.7-6.2 1.8-16.7 1.8-235.5 0-215.8-.1-229.4-1.8-235.5-5.4-19.9-19.7-35.4-40.8-44.1-18.4-7.5-43.3-10.4-67.4-7.8zm32.7 47.6c5.3 2.4 10.3 8 11.7 13 .8 2.6 1.1 74.4 1.1 227.1 0 198.7-.2 223.7-1.5 226.9-2.5 5.9-6.5 9.5-6.5 5.8 0-2.4-3.5-8.7-6.2-11.2-5.3-5-11.4-6.6-26.1-7.1l-13.7-.5.2-219.6.3-219.6 2.2-4.1c3.7-6.9 8.6-10.4 17.8-12.8 4-1 16.4.3 20.7 2.1zM3900 122.6c-37.2 4.3-60.8 17.8-72.1 41.2-5.3 11-6.2 17.9-5.5 42.7 1.1 43.3 6.2 73.2 19.3 112.9 8.8 27.1 18.5 48.9 45 101.1 22 43.4 32 68.8 41.3 104.9 7.3 28.1 10.6 52.5 11.7 85.6.7 24.1-.1 28.4-6.6 34.3-5.2 4.7-10.1 6.2-20.1 6.2-7.2 0-9.3-.4-14.1-2.8-6.5-3.1-10.3-7.9-11.8-14.7-.7-2.8-1.1-26.4-1.1-62.1v-57.7l-2.8-5.3c-2-3.9-4.1-6.2-7.7-8.4l-4.8-3-22.2-.3-22.2-.3-2.2 2.7-2.2 2.8.3 70 .3 70.1 2.7 8.1c9.3 27.2 34.9 43.2 74.6 46.6 43 3.8 78.8-9.5 95.6-35.2l3.6-5.5v-52.6c0-52.4 0-52.8-2.5-65.6-5.2-26-13.4-53.2-23.2-76.8-2.6-6.1-12.5-27.2-22.1-47-9.6-19.8-21.6-44.8-26.7-55.5-24.1-50.5-34.7-91.8-37.6-145.6-1.2-22.9-.7-28.8 3.2-35.1 2.9-4.6 6.7-7 14-8.9 15.9-4.1 31.1 2.3 34.8 14.5.8 2.7 1.1 21.1 1.1 61 0 40.5.3 58.6 1.2 61.9 1.5 5.9 8.5 13.2 14.4 15 2.6.8 11.2 1.2 23.8 1.2h19.6V163.9l-2.6-5.2c-1.5-2.9-6-8.5-10.3-12.7-11.3-11.2-25.7-18.1-45.1-21.5-8.4-1.5-34.2-2.7-41-1.9zM2387.5 131.4l-2.5 2.5v552.2l2.5 2.5 2.5 2.5 21.8-.3 21.7-.3 4.8-2.8c2.6-1.5 6-4.7 7.5-6.9l2.7-4.2.3-97.8.2-97.8h16.3c31.1 0 49.6-3.2 66.7-11.6 7.7-3.9 10.9-6.2 17.5-12.8 8.9-9 13.2-16.5 16.2-28.2 1.7-6.4 1.8-15 1.8-123.9 0-110.5-.1-117.4-1.8-123.5-7-24.6-25.1-40.2-56.6-48.8l-9.6-2.6-54.7-.4-54.8-.3-2.5 2.5zm99.6 44.6c6.1 1.7 10.2 5.2 13.2 10.9l2.7 5.5v111.4c0 80.6-.3 112.5-1.1 115.3-1.6 5.3-6.1 10.3-11.6 13-4.4 2.2-6.4 2.4-23 2.7l-18.3.4V175h17.3c9.4 0 18.8.5 20.8 1zM2635.2 131.3l-2.2 2.3v553.1l2.3 2.1c2.2 2.1 3.2 2.2 22.3 2.2 23.6 0 27.1-.8 33.3-7.5 2.2-2.3 4.4-6 5-8.1.8-2.7 1.1-42.2 1.1-125.7V428h54v122.7c0 116.8.1 123 1.9 126.8 1 2.2 3.3 5.4 5.1 7.2 5.6 5.5 9.9 6.3 32.5 6.3 19.8 0 20.2 0 22.3-2.3l2.2-2.3V134.3l-2.1-2.7-2.1-2.7-21.7.3c-20.9.3-21.8.4-26.5 2.8-2.7 1.4-6.3 4.2-8 6.3l-3.1 3.9-.3 119.9-.2 119.9h-54V263.5c0-116.4 0-118.7-2-122.5-1.1-2.1-3.5-5.1-5.4-6.5-6.1-4.7-11.1-5.5-32.6-5.5-19.2 0-19.7 0-21.8 2.3zM3378.2 131.3l-2.2 2.4.2 254.9.3 254.9 2.6 6.6c4 10.3 7.6 15.8 15.5 23.6 16.7 16.5 46.5 25.5 79.5 23.9 45.7-2.2 73.9-19.8 81.9-51.2 2-7.6 2-12 2-260.4V133.3l-2.4-2.2c-2.3-2.2-2.8-2.2-23.8-1.9-20.5.3-21.6.4-26.2 2.8-2.7 1.4-6.3 4.2-8 6.3l-3.1 3.9-.5 246.7-.5 246.8-3 4.9c-9.4 15.4-39.3 14.9-47.7-.8l-2.3-4.3-.5-246.7-.5-246.6-3.1-3.9c-1.7-2.1-5.3-4.9-8-6.3-4.7-2.4-5.6-2.5-26.4-2.8l-21.6-.3-2.2 2.4zM3626.7 130.2c-.9.7-2.1 2.6-2.7 4.1-1.5 4.1-1.4 547.2.1 551.6.6 1.7 1.9 3.6 2.9 4.1 1.2.6 27.5 1 70 1h68.1l2.4-2.5c2.3-2.3 2.5-3.1 2.5-13.1 0-5.9-.5-12.4-1.1-14.5-1.6-5.3-6.1-10.3-11.6-13.1-4.7-2.2-5.6-2.3-37-2.6l-32.3-.4V436h25.8c28 0 32.4-.6 38.6-5.4 1.9-1.4 4.4-4.7 5.7-7.3 2-4.2 2.3-6.3 2.4-16.6 0-11.8 0-11.9-2.8-14.3l-2.8-2.4H3688V175.1l32.3-.3c31.4-.3 32.3-.4 37-2.6 5.5-2.8 10-7.8 11.6-13.1.6-2.1 1.1-8.6 1.1-14.5 0-10-.2-10.8-2.5-13.1l-2.4-2.5h-68.4c-53.1 0-68.7.3-70 1.2zM2464.1 763.3c-5.3 2-10.9 7.3-12.1 11.5-.8 2.5-1 26.5-.8 76.8l.3 73.1 2.9 3.7c4.5 5.9 11.3 8.6 21.7 8.6 13 0 19.9-3.2 23.9-11 1.9-3.8 2-6 2-76.3v-72.4l-2.3-4.4c-1.6-2.9-4-5.4-7.2-7.4-4.4-2.7-5.6-3-14.9-3.2-6.3-.2-11.4.2-13.5 1zm17.9 15.3c1.3 1.3 1.5 10.5 1.5 70.9 0 76.5.4 71.8-6.2 73.1-2.6.5-3.7.1-5.7-1.9l-2.6-2.6V850c0-46.3.3-68.8 1.1-70.1 2.1-3.9 8.5-4.6 11.9-1.3zM3265.2 763.3c-9.2 3.5-14.1 11.1-14.2 21.7 0 22.1 3.7 35.4 20.5 73.5 7.6 17.2 11.4 32.4 12.2 48 .6 13.4 0 15-5.2 16.1-2.2.4-3.8 0-5.8-1.6l-2.7-2.1v-19.5c0-23.8.1-23.7-11.3-23.2l-7.2.3v23c0 26.8.5 28.7 9 34 4.3 2.7 5.9 3 14.1 3.3 11.8.5 17.8-1.3 22.7-6.7 5.2-5.8 6.1-9.6 5.4-23.1-1.2-21.9-4.2-32.7-16.7-61-4.5-10.1-9.2-21.5-10.5-25.5-3-9.4-5.5-24.1-5.5-33.1 0-6.6.2-7.4 2.6-9.3 1.5-1.2 3.4-2.1 4.4-2.1 1 0 2.9.9 4.4 2.1l2.6 2v19.4c0 23.2.1 23.3 9.8 24.2 9.5.9 9.2 1.6 9.2-23.2 0-26.5-1.1-30.4-10.3-35.6-3.5-2-5.8-2.4-14.2-2.6-6.1-.2-11.3.2-13.3 1zM3805.9 763.4c-5.5 1.9-9.4 5.2-11.5 9.3-1.8 3.6-1.9 7.8-2.2 74.8-.2 49.9 0 72.1.8 74.8.6 2.1 2.7 5.6 4.6 7.7 5 5.5 11 7.3 22.8 6.8 8.2-.3 9.8-.6 14.1-3.3 3-1.9 5.6-4.5 6.9-7 2.1-3.9 2.1-5.2 2.4-75 .2-48.6 0-72.2-.8-74.7-1.5-5.3-5.6-9.7-11.5-12.4-4-1.9-6.6-2.4-13.5-2.3-4.7 0-10.1.6-12.1 1.3zm16.5 14.7 2.6 2v138.8l-2.7 2.1c-3.2 2.5-7.9 2.1-10-.7-1-1.3-1.3-17.1-1.3-70.9v-69.3l2.6-2c1.5-1.2 3.4-2.1 4.4-2.1 1 0 2.9.9 4.4 2.1zM3923.2 763.3c-5.2 1.9-10.3 6.6-12.5 11.6-1.7 4-1.9 5.9-1.4 16.1 1 20.1 4.4 32.5 16 58 11.7 26 15.3 38.7 16.4 58.1l.6 11.5-2.9 2.3c-2.9 2.3-7.6 2.3-9.9 0-.6-.6-1.2-9.4-1.5-21.5-.6-24.3-.1-23.4-11.8-23.4h-7.3l.3 23.8.3 23.9 2.7 4c4.2 6.3 11.1 9.3 21.6 9.3 10.9 0 15.6-1.5 20.8-6.5 5.7-5.4 6.8-10 6-24-1.3-21.5-4.7-33.5-17.4-62-8.9-20.1-11.6-27.9-13.7-40.3-1.8-10.4-2-23.2-.2-25.5 2.1-2.8 6.8-3.2 10-.7l2.7 2.1v19.4c0 23.2.1 23.3 9.8 24.2 9.5.9 9.2 1.6 9.2-22.6 0-12-.5-22.3-1.1-24.6-1.5-5.2-8.2-11.9-13.4-13.4-5.2-1.4-19.1-1.3-23.3.2zM1917.6 765.5c-.3.9-.6 38.9-.6 84.5 0 76.8.1 83 1.7 84.6 1.5 1.5 3.5 1.6 17.3 1.1 8.5-.3 17.1-1.1 19-1.7 5.3-1.9 9.8-5.7 12-10 1.9-3.8 2-6 2-74.2v-70.4l-2.2-4.4c-1.6-3.1-3.8-5.4-7.2-7.5l-4.9-3-18.2-.3c-16.2-.3-18.3-.1-18.9 1.3zm31.2 14.9c1.6 1.5 1.7 7 1.7 69.2v67.6l-2.4 1.9c-1.6 1.3-3.9 1.9-7.2 1.9h-4.9V777.8l5.6.4c3.3.3 6.2 1.1 7.2 2.2zM2034.7 764.7c-.4.3-.7 38.6-.7 84.9 0 82.4 0 84.4 1.9 85.4 2.1 1.1 35.8 1.4 38.5.4 2.5-1 2.2-9.8-.4-12.4-1.7-1.7-3.3-2-11.5-2h-9.5v-63h7.8c10.7 0 12.4-1.3 12-8.8l-.3-5.7-9.7-.3-9.8-.3V778h9.9c9.2 0 10.1-.2 11.5-2.2.9-1.3 1.6-4.3 1.6-7V764h-20.3c-11.2 0-20.7.3-21 .7zM2134.7 765.2c-.2.7 3.2 38.9 7.5 84.8 6.6 68.4 8.3 83.7 9.6 84.8 1.8 1.4 15.9 1.6 18.2.3 1.1-.8 3.1-18.5 9.2-81.3 4.2-44.2 7.7-82.4 7.8-85.1V764h-7.3c-6.2 0-7.7.3-9.2 2-1.7 1.8-2.3 8.4-5.6 60.3-2.1 32-3.9 58.4-4 58.7-.1.3-1.9-26-4-58.4-3.3-50.7-4-59.1-5.5-60.7-1.4-1.5-3.1-1.9-8.9-1.9-4.9 0-7.4.4-7.8 1.2zM2249.7 764.7c-.4.3-.7 38.6-.7 84.9 0 82.4 0 84.4 1.9 85.4 2.1 1.1 35.8 1.4 38.5.4 2.5-1 2.2-9.8-.4-12.4-1.7-1.7-3.3-2-11.5-2h-9.5v-63h8c10.3 0 12.2-1.5 11.8-9.3l-.3-5.2-9.7-.3-9.8-.3V778h9.9c9.2 0 10.1-.2 11.5-2.2.9-1.3 1.6-4.3 1.6-7V764h-20.3c-11.2 0-20.7.3-21 .7zM2353 849.4c0 76.9.2 85.4 1.6 86 2 .8 35.8.8 37.8 0 1.2-.5 1.6-2 1.6-5.9 0-7.6-1.4-8.5-13.3-8.5h-9.7v-76.8c0-88.9 1.2-80.2-10.8-80.2h-7.2v85.4zM2567.6 765.5c-.3.9-.6 38.9-.6 84.5 0 94.9-.9 86.6 9.3 85.7 10.2-.9 9.7.7 9.7-34.4V871h8.3c8.7 0 16.2-2.5 19.9-6.6 4.6-5.2 4.8-7.2 4.8-47.2 0-37.7 0-37.9-2.3-42.3-1.6-2.9-4-5.4-7.2-7.4l-4.8-3-18.2-.3c-16.2-.3-18.3-.2-18.9 1.3zm31.2 14.9c1.5 1.5 1.7 5.2 2 34 .2 21.6 0 33.8-.8 36.6-1.2 4.6-3.6 6-10.1 6h-3.9v-79.2l5.6.4c3.3.3 6.2 1.1 7.2 2.2zM2684.7 764.7c-.4.3-.7 38.6-.7 84.9v84.3l2.2 1.2c3.1 1.7 12.7.5 15.1-1.9 1.9-2 1.9-2.6.3-50.3-.9-26.6-1.6-49.8-1.5-51.4.1-1.7 2.7 19.6 5.9 47.1 3.2 27.6 6.1 51.1 6.4 52.1 1.4 4.4 11 6.2 15.9 3 1.4-.9 2.7-2.8 3-4.4.3-1.5 2.9-24.4 5.9-50.7 2.9-26.4 5.5-47.2 5.6-46.2.2 1-.4 23.4-1.3 49.8-1.8 53.2-1.9 51.9 4.6 53.2 5.2 1 10.6.7 11.8-.8.8-1 1-24.2.9-85.7l-.3-84.4-8.4-.3c-9.3-.3-11.1.5-13.6 6.6-2.2 5.1-3.1 11.3-9.1 64.7-3 27.5-5.6 50.1-5.8 50.2-.1.1-2.7-23.1-5.9-51.6-3.1-28.4-6.4-54.4-7.2-57.6-.9-3.3-2.7-7.4-4.1-9.2-2.5-3.3-2.6-3.3-10.8-3.3-4.5 0-8.6.3-8.9.7zM2827 849.4c0 76.9.2 85.4 1.6 86 2 .8 35.8.8 37.8 0 1.2-.5 1.6-2 1.6-5.9 0-7.6-1.4-8.5-13.3-8.5h-9.7v-63h7.8c5.3 0 8.4-.5 9.9-1.5 2.5-1.7 3.9-7.1 2.9-11-.6-2.5-.8-2.5-10.6-2.5h-10v-65h9.8c11.9 0 13.2-.9 13.2-8.8V764h-41v85.4zM2930 849.4c0 94.4-.6 86.6 6.3 86.6 6.1 0 10.6-1.9 11.3-4.7.4-1.4.5-20.4.2-42.2l-.5-39.6 8.1 41.3c5.4 27.1 8.7 41.8 9.8 42.8.9.9 4.1 1.8 7.5 2.1 10.2.9 9.3 9.3 9.3-85.7 0-45.6-.3-83.5-.6-84.4-.5-1.3-2.2-1.6-7.9-1.6-11.7 0-10.9-3.7-10.2 47.3.3 23.7.4 42.7.2 42.2-.7-1.6-7.2-36.7-11.6-62.4-2.6-15.6-4.5-24.1-5.6-25.3-1.3-1.4-3.2-1.8-9-1.8h-7.3v85.4zM3044.7 764.6c-1.1 1.1-.8 7.3.4 9.7 1.7 3.2 2.8 3.7 8.7 3.7h5.2v77.4c0 68.9.2 77.5 1.6 78.7 2.5 2.1 12 2.4 14.9.5l2.5-1.6V778h5.5c7.4 0 9.7-2.2 9.3-8.8l-.3-4.7-23.6-.3c-12.9-.1-23.8.1-24.2.4zM3364.7 764.7c-1.1 1-.8 7.2.4 9.6 1.7 3.2 2.8 3.7 8.7 3.7h5.2v76.8c0 62.9.2 77.2 1.4 78.7 1.9 2.6 11.7 3.3 15.1 1.1l2.5-1.6V778h5.5c7.3 0 9.5-2.1 9.5-9v-5h-23.8c-13.1 0-24.2.3-24.5.7zM3474.4 765.3c-.2.7-.3 36.4-.2 79.2.3 70.4.5 78.3 2 81 4.3 7.9 11.8 11.5 24.3 11.5 7.4 0 9.9-.4 14-2.4 5.8-2.7 7.8-4.7 10-9.9 1.3-3.2 1.5-13.8 1.5-82.2V764h-7.3c-12.4 0-11.1-9-11.7 79.4-.3 50.5-.8 76.9-1.5 77.5-.6.6-2.5 1.3-4.2 1.7-2.6.5-3.7.1-5.7-1.9l-2.6-2.6v-75.4c0-87.2 1.2-78.7-10.9-78.7-4.9 0-7.3.4-7.7 1.3zM3591.7 764.6c-.4.4-.7 38.6-.7 84.9 0 74.2.2 84.4 1.5 85.5 1.2 1 5.5 1.2 17.3.8 13.3-.4 16.6-.9 20.7-2.7 6.3-2.8 8.3-4.6 10.6-9.6 1.7-3.8 1.9-8.2 1.9-74.1v-70.1l-2.3-4.4c-1.6-2.9-4-5.4-7.2-7.4l-4.8-3-18.1-.3c-10-.2-18.4 0-18.9.4zm30.9 15.9c1.2 1.5 1.4 14.2 1.4 69s-.2 67.5-1.4 69c-.9 1.3-3 2-7 2.3l-5.6.4V777.8l5.6.4c4 .3 6.1 1 7 2.3zM3709.6 766.2c-1.4 2-1.6 11-1.6 84.4 0 73.2.2 82.3 1.6 83.5 2.5 2.1 12 2.4 14.9.5l2.5-1.7-.2-84.2-.3-84.2-7.7-.3c-7-.3-7.8-.1-9.2 2zM149.9 795.2c-7.4 10.7-23.3 29.2-35.4 41.3-27.9 27.9-54.4 46.2-90.5 62.2C-.2 909.5-3.5 912.4 3 917c9.8 7 31.4 13.7 53 16.4 43.8 5.5 90.8 4.4 122.5-2.8 17.7-4.1 41.8-14 49.5-20.5l3.3-2.7-4.8-4c-11.3-9.2-32.8-35.4-45.5-55.4-7-11-18.6-33.8-23.5-46.3-2.1-5.3-4.2-9.7-4.6-9.7-.4 0-1.8 1.5-3 3.2z"/>
</svg>
