<svg version="1.0" xmlns="http://www.w3.org/2000/svg" width="533.2" height="141.3" viewBox="1080 0 2950 950">
    <path
        d="M 1092.1 54.7 C 1087.7 57 1087.1 59.2 1086.8 74.5 C 1086.5 86.3 1086.6 86.6 1089.6 92 C 1095.4 102.2 1099.7 103.7 1128.3 105.5 L 1139 106.2 L 1138.5 112.3 C 1137.4 123.9 1104 648.5 1104 653.6 C 1104 659.2 1106.4 663.7 1111.1 667.2 C 1114.4 669.7 1124.8 671 1143.9 671.3 L 1158.8 671.5 L 1162.6 668.4 C 1165 666.5 1167 663.8 1167.8 661.4 C 1168.6 658.9 1175.5 556.2 1186.5 384.1 C 1196.1 233.7 1204.1 110.6 1204.2 110.5 C 1204.4 110.4 1212 110.8 1221.1 111.3 C 1240 112.4 1242.9 112.1 1249.2 108.1 C 1256.1 103.7 1258.8 97.3 1260 82.7 C 1261.1 69.3 1260.5 66.6 1255.8 64.5 C 1253.4 63.4 1233.4 61.9 1180 58.5 C 1140.1 56.1 1104.8 53.8 1101.5 53.5 C 1096.9 53.1 1094.7 53.4 1092.1 54.7 Z M 1327.7 70.6 C 1320.5 72.9 1314.5 79.3 1313.1 86.1 C 1311.5 94.2 1275.2 664.9 1276.1 668.9 C 1277 672.9 1281.3 677.7 1285.8 679.7 C 1287.9 680.5 1296.4 681.5 1308.3 682.2 C 1327.2 683.3 1327.6 683.3 1331.8 681.1 C 1336.7 678.6 1339.7 674.3 1340.5 668.5 C 1341.2 662.8 1378 87.4 1378 81.3 C 1378 71.5 1375.4 70.5 1348.2 69.6 C 1335.6 69.1 1331.6 69.3 1327.7 70.6 Z M 1449 77.3 C 1447.6 78 1446 79.7 1445.4 81 C 1443.6 84.9 1405.6 681.5 1407 684 C 1409.5 688.7 1409.7 688.7 1474.8 693 C 1549.2 697.8 1548 697.8 1551.6 694.7 C 1554.2 692.5 1554.4 691.7 1554.9 681.4 C 1555.3 675.4 1555.2 668.3 1554.8 665.6 C 1553.4 656 1546 648.8 1536 647.1 C 1533 646.6 1517.9 645.4 1502.5 644.5 C 1487.1 643.5 1474.4 642.6 1474.2 642.5 C 1474 642.4 1481.7 520.2 1491.3 371.1 C 1504.2 171.1 1508.5 98.8 1507.8 95.6 C 1505.6 85.4 1496.2 79.4 1480.1 78 C 1458.2 76.1 1451.6 75.9 1449 77.3 Z M 1593.4 85.7 C 1592.2 85.9 1590.3 87.1 1589.1 88.4 C 1587.3 90.3 1586.9 92.3 1586.4 102.7 C 1585.6 117.4 1586.6 122.2 1592.1 128.4 C 1597.6 134.6 1601.2 135.7 1620.6 137 C 1629.9 137.7 1637.7 138.3 1637.9 138.5 C 1638.1 138.7 1630.3 262.6 1620.6 413.8 C 1610.9 565 1603.2 689.5 1603.6 690.6 C 1605 694.5 1608.3 698.1 1612 700 C 1615.2 701.6 1619.6 702.2 1635.3 703.2 C 1654.5 704.4 1654.6 704.4 1659.3 702.1 C 1662 700.8 1664.8 698.5 1666 696.5 C 1668 693.3 1669 678.1 1685.8 417.6 C 1703.2 145.8 1703.5 142.1 1705.5 142.6 C 1706.6 142.9 1715.7 143.2 1725.6 143.3 L 1743.8 143.5 L 1748.1 140.5 C 1756.5 134.6 1758.6 129.6 1759.6 112.2 C 1760.3 101.4 1760.2 100.9 1758 98.5 C 1756.7 97.1 1754.3 95.8 1752.6 95.5 C 1750.9 95.2 1717.3 93 1678 90.5 C 1638.7 88.1 1604 85.9 1601 85.7 C 1598 85.4 1594.5 85.4 1593.4 85.7 Z M 1815.5 102.4 C 1813.9 104 1813 106.3 1812.6 110.1 C 1811.6 119.6 1775 695.3 1775 701.7 C 1775 708.9 1776.7 711.5 1782.2 712.4 C 1785.5 713 1909.1 721 1914.3 721 C 1916.1 721 1918.2 719.9 1919.9 718.2 C 1922.6 715.6 1922.8 714.7 1923.5 703.8 C 1924.4 689.2 1922.9 683.2 1917 677.2 C 1911.3 671.2 1907.1 670.4 1872.8 668.2 C 1856.4 667.2 1842.9 666.2 1842.6 665.9 C 1842.2 665.4 1856.7 438.9 1857.3 438.4 C 1857.5 438.2 1869.6 438.7 1884.2 439.7 C 1906.1 441.1 1911.5 441.1 1915.2 440.1 C 1920.9 438.5 1926.4 434 1929.1 428.9 C 1932.3 422.5 1934.3 400.3 1932 396.1 C 1931.5 395.1 1929.8 393.8 1928.3 393.2 C 1926.8 392.6 1910.9 391.1 1893 390 C 1875.2 388.8 1860.5 387.8 1860.4 387.7 C 1860.1 387.5 1875.1 153.5 1875.3 153.4 C 1875.4 153.4 1889.7 154.3 1907.1 155.4 C 1943.8 157.7 1945.6 157.5 1952.6 150.5 C 1957.9 145.1 1959.7 139.5 1960.6 125.5 C 1961.2 115.2 1961.1 114.3 1959.1 111.8 C 1957.8 110.3 1955.5 108.8 1953.7 108.5 C 1950 107.9 1828.6 100 1822.2 100 C 1819 100 1817.3 100.6 1815.5 102.4 Z M 2017.8 114.1 C 2016.8 114.6 2015.5 116.1 2014.9 117.3 C 2014.1 118.7 2006.7 228.4 1994.5 418.5 C 1973.2 749.6 1974.3 722.9 1981.7 724.9 C 1988.4 726.7 2070.1 731.3 2085.5 730.7 C 2126.9 729.1 2154.8 709 2162.4 675.4 C 2164 668 2194 210 2194 192.1 C 2194 176.6 2189.1 162.3 2179.8 150.7 C 2166.5 133.9 2145.3 123.1 2118.8 119.5 C 2107.9 118 2034.1 113 2024.3 113 C 2021.7 113 2018.7 113.5 2017.8 114.1 Z M 2100.5 168.1 C 2115 169.3 2120.8 171.9 2125 179.3 C 2126.6 182.2 2128.2 186.3 2128.5 188.5 C 2128.9 190.7 2122.4 297.8 2114.1 426.6 C 2102.7 603.1 2098.7 661.7 2097.5 665 C 2095.4 671 2091.6 675.6 2086.7 678.3 C 2082.9 680.3 2081.2 680.5 2068.4 680.4 C 2060.6 680.3 2051.7 679.9 2048.6 679.6 L 2042.9 678.8 L 2043.5 673.2 C 2044 668.3 2076 170.1 2076 167.3 C 2076 166.2 2079.9 166.3 2100.5 168.1 Z M 2958 122.6 C 2927.9 126.1 2912.7 132.3 2898.4 146.4 C 2889.6 155.2 2885.4 162.4 2882.3 174 C 2880.6 180.1 2880.5 193.7 2880.5 410.5 L 2880.5 640.5 L 2883.2 648.5 C 2891.4 672.6 2911.6 688.4 2943.1 695.1 C 2958 698.3 2986.8 698.3 3001.9 695.1 C 3028.8 689.4 3046.9 677.2 3056 658.7 C 3063.5 643.4 3063.1 661.1 3062.8 406.5 C 3062.5 187.9 3062.4 178.3 3060.7 173 C 3050 141.1 3020.4 123.6 2975.5 122.5 C 2967.8 122.3 2959.9 122.4 2958 122.6 Z M 2986.8 171.7 C 2991.2 173.9 2992.9 175.6 2995.4 180 L 2998.5 185.5 L 2998.5 634.5 L 2996.3 638.6 C 2993.6 643.7 2988.3 648.4 2983.3 650.1 C 2978.4 651.9 2964.6 651.9 2959.7 650.1 C 2954.5 648.3 2949.1 643.4 2946.9 638.5 C 2945.1 634.7 2945 625 2945 411 C 2945 258.1 2945.3 186.3 2946.1 183.7 C 2947.3 179.4 2952 173.6 2956.1 171.4 C 2964.5 167.1 2978.2 167.2 2986.8 171.7 Z M 3200.5 123.1 C 3168.9 126.6 3145.3 140.4 3134.7 161.5 C 3133.4 164.2 3131.4 169 3130.4 172 C 3128.6 177.3 3128.5 186.2 3128.2 406 C 3127.9 659.8 3127.5 643.5 3134.6 658 C 3140.1 669.2 3151.4 680 3164.3 686.4 L 3174 691.2 L 3174 701.4 C 3174.1 719.2 3177 725.9 3186.9 730.7 C 3192.4 733.4 3193 733.5 3212.8 733.8 L 3233 734.1 L 3236 731.2 L 3239 728.2 L 3239 696.3 L 3244.3 695.7 C 3258.3 694 3273.8 688.2 3284.5 680.5 C 3296.7 671.8 3304.6 660.6 3308.7 646 C 3310.4 639.8 3310.5 629.3 3310.5 410.5 C 3310.5 194.7 3310.4 181.1 3308.7 175 C 3303.3 155.1 3289 139.6 3267.9 130.9 C 3249.5 123.4 3224.6 120.5 3200.5 123.1 Z M 3233.2 170.7 C 3238.5 173.1 3243.5 178.7 3244.9 183.7 C 3245.7 186.3 3246 258.1 3246 410.8 C 3246 609.5 3245.8 634.5 3244.5 637.7 C 3242 643.6 3238 647.2 3238 643.5 C 3238 641.1 3234.5 634.8 3231.8 632.3 C 3226.5 627.3 3220.4 625.7 3205.7 625.2 L 3192 624.7 L 3192.2 405.1 L 3192.5 185.5 L 3194.7 181.4 C 3198.4 174.5 3203.3 171 3212.5 168.6 C 3216.5 167.6 3228.9 168.9 3233.2 170.7 Z M 3900 122.6 C 3862.8 126.9 3839.2 140.4 3827.9 163.8 C 3822.6 174.8 3821.7 181.7 3822.4 206.5 C 3823.5 249.8 3828.6 279.7 3841.7 319.4 C 3850.5 346.5 3860.2 368.3 3886.7 420.5 C 3908.7 463.9 3918.7 489.3 3928 525.4 C 3935.3 553.5 3938.6 577.9 3939.7 611 C 3940.4 635.1 3939.6 639.4 3933.1 645.3 C 3927.9 650 3923 651.5 3913 651.5 C 3905.8 651.5 3903.7 651.1 3898.9 648.7 C 3892.4 645.6 3888.6 640.8 3887.1 634 C 3886.4 631.2 3886 607.6 3886 571.9 L 3886 514.2 L 3883.2 508.9 C 3881.2 505 3879.1 502.7 3875.5 500.5 L 3870.7 497.5 L 3848.5 497.2 L 3826.3 496.9 L 3824.1 499.6 L 3821.9 502.4 L 3822.2 572.4 L 3822.5 642.5 L 3825.2 650.6 C 3834.5 677.8 3860.1 693.8 3899.8 697.2 C 3942.8 701 3978.6 687.7 3995.4 662 L 3999 656.5 L 3999 603.9 C 3999 551.5 3999 551.1 3996.5 538.3 C 3991.3 512.3 3983.1 485.1 3973.3 461.5 C 3970.7 455.4 3960.8 434.3 3951.2 414.5 C 3941.6 394.7 3929.6 369.7 3924.5 359 C 3900.4 308.5 3889.8 267.2 3886.9 213.4 C 3885.7 190.5 3886.2 184.6 3890.1 178.3 C 3893 173.7 3896.8 171.3 3904.1 169.4 C 3920 165.3 3935.2 171.7 3938.9 183.9 C 3939.7 186.6 3940 205 3940 244.9 C 3940 285.4 3940.3 303.5 3941.2 306.8 C 3942.7 312.7 3949.7 320 3955.6 321.8 C 3958.2 322.6 3966.8 323 3979.4 323 L 3999 323 L 3999 163.9 L 3996.4 158.7 C 3994.9 155.8 3990.4 150.2 3986.1 146 C 3974.8 134.8 3960.4 127.9 3941 124.5 C 3932.6 123 3906.8 121.8 3900 122.6 Z M 2387.5 131.4 L 2385 133.9 L 2385 686.1 L 2387.5 688.6 L 2390 691.1 L 2411.8 690.8 L 2433.5 690.5 L 2438.3 687.7 C 2440.9 686.2 2444.3 683 2445.8 680.8 L 2448.5 676.6 L 2448.8 578.8 L 2449 481 L 2465.3 481 C 2496.4 481 2514.9 477.8 2532 469.4 C 2539.7 465.5 2542.9 463.2 2549.5 456.6 C 2558.4 447.6 2562.7 440.1 2565.7 428.4 C 2567.4 422 2567.5 413.4 2567.5 304.5 C 2567.5 194 2567.4 187.1 2565.7 181 C 2558.7 156.4 2540.6 140.8 2509.1 132.2 L 2499.5 129.6 L 2444.8 129.2 L 2390 128.9 L 2387.5 131.4 Z M 2487.1 176 C 2493.2 177.7 2497.3 181.2 2500.3 186.9 L 2503 192.4 L 2503 303.8 C 2503 384.4 2502.7 416.3 2501.9 419.1 C 2500.3 424.4 2495.8 429.4 2490.3 432.1 C 2485.9 434.3 2483.9 434.5 2467.3 434.8 L 2449 435.2 L 2449 175 L 2466.3 175 C 2475.7 175 2485.1 175.5 2487.1 176 Z M 2635.2 131.3 L 2633 133.6 L 2633 686.7 L 2635.3 688.8 C 2637.5 690.9 2638.5 691 2657.6 691 C 2681.2 691 2684.7 690.2 2690.9 683.5 C 2693.1 681.2 2695.3 677.5 2695.9 675.4 C 2696.7 672.7 2697 633.2 2697 549.7 L 2697 428 L 2751 428 L 2751 550.7 C 2751 667.5 2751.1 673.7 2752.9 677.5 C 2753.9 679.7 2756.2 682.9 2758 684.7 C 2763.6 690.2 2767.9 691 2790.5 691 C 2810.3 691 2810.7 691 2812.8 688.7 L 2815 686.4 L 2815 134.3 L 2812.9 131.6 L 2810.8 128.9 L 2789.1 129.2 C 2768.2 129.5 2767.3 129.6 2762.6 132 C 2759.9 133.4 2756.3 136.2 2754.6 138.3 L 2751.5 142.2 L 2751.2 262.1 L 2751 382 L 2697 382 L 2697 263.5 C 2697 147.1 2697 144.8 2695 141 C 2693.9 138.9 2691.5 135.9 2689.6 134.5 C 2683.5 129.8 2678.5 129 2657 129 C 2637.8 129 2637.3 129 2635.2 131.3 Z M 3378.2 131.3 L 3376 133.7 L 3376.2 388.6 L 3376.5 643.5 L 3379.1 650.1 C 3383.1 660.4 3386.7 665.9 3394.6 673.7 C 3411.3 690.2 3441.1 699.2 3474.1 697.6 C 3519.8 695.4 3548 677.8 3556 646.4 C 3558 638.8 3558 634.4 3558 386 L 3558 133.3 L 3555.6 131.1 C 3553.3 128.9 3552.8 128.9 3531.8 129.2 C 3511.3 129.5 3510.2 129.6 3505.6 132 C 3502.9 133.4 3499.3 136.2 3497.6 138.3 L 3494.5 142.2 L 3494 388.9 L 3493.5 635.7 L 3490.5 640.6 C 3481.1 656 3451.2 655.5 3442.8 639.8 L 3440.5 635.5 L 3440 388.8 L 3439.5 142.2 L 3436.4 138.3 C 3434.7 136.2 3431.1 133.4 3428.4 132 C 3423.7 129.6 3422.8 129.5 3402 129.2 L 3380.4 128.9 L 3378.2 131.3 Z M 3626.7 130.2 C 3625.8 130.9 3624.6 132.8 3624 134.3 C 3622.5 138.4 3622.6 681.5 3624.1 685.9 C 3624.7 687.6 3626 689.5 3627 690 C 3628.2 690.6 3654.5 691 3697 691 L 3765.1 691 L 3767.5 688.5 C 3769.8 686.2 3770 685.4 3770 675.4 C 3770 669.5 3769.5 663 3768.9 660.9 C 3767.3 655.6 3762.8 650.6 3757.3 647.8 C 3752.6 645.6 3751.7 645.5 3720.3 645.2 L 3688 644.8 L 3688 436 L 3713.8 436 C 3741.8 436 3746.2 435.4 3752.4 430.6 C 3754.3 429.2 3756.8 425.9 3758.1 423.3 C 3760.1 419.1 3760.4 417 3760.5 406.7 C 3760.5 394.9 3760.5 394.8 3757.7 392.4 L 3754.9 390 L 3688 390 L 3688 175.1 L 3720.3 174.8 C 3751.7 174.5 3752.6 174.4 3757.3 172.2 C 3762.8 169.4 3767.3 164.4 3768.9 159.1 C 3769.5 157 3770 150.5 3770 144.6 C 3770 134.6 3769.8 133.8 3767.5 131.5 L 3765.1 129 L 3696.7 129 C 3643.6 129 3628 129.3 3626.7 130.2 Z M 2464.1 763.3 C 2458.8 765.3 2453.2 770.6 2452 774.8 C 2451.2 777.3 2451 801.3 2451.2 851.6 L 2451.5 924.7 L 2454.4 928.4 C 2458.9 934.3 2465.7 937 2476.1 937 C 2489.1 937 2496 933.8 2500 926 C 2501.9 922.2 2502 920 2502 849.7 L 2502 777.3 L 2499.7 772.9 C 2498.1 770 2495.7 767.5 2492.5 765.5 C 2488.1 762.8 2486.9 762.5 2477.6 762.3 C 2471.3 762.1 2466.2 762.5 2464.1 763.3 Z M 2482 778.6 C 2483.3 779.9 2483.5 789.1 2483.5 849.5 C 2483.5 926 2483.9 921.3 2477.3 922.6 C 2474.7 923.1 2473.6 922.7 2471.6 920.7 L 2469 918.1 L 2469 850 C 2469 803.7 2469.3 781.2 2470.1 779.9 C 2472.2 776 2478.6 775.3 2482 778.6 Z M 3265.2 763.3 C 3256 766.8 3251.1 774.4 3251 785 C 3251 807.1 3254.7 820.4 3271.5 858.5 C 3279.1 875.7 3282.9 890.9 3283.7 906.5 C 3284.3 919.9 3283.7 921.5 3278.5 922.6 C 3276.3 923 3274.7 922.6 3272.7 921 L 3270 918.9 L 3270 899.4 C 3270 875.6 3270.1 875.7 3258.7 876.2 L 3251.5 876.5 L 3251.5 899.5 C 3251.5 926.3 3252 928.2 3260.5 933.5 C 3264.8 936.2 3266.4 936.5 3274.6 936.8 C 3286.4 937.3 3292.4 935.5 3297.3 930.1 C 3302.5 924.3 3303.4 920.5 3302.7 907 C 3301.5 885.1 3298.5 874.3 3286 846 C 3281.5 835.9 3276.8 824.5 3275.5 820.5 C 3272.5 811.1 3270 796.4 3270 787.4 C 3270 780.8 3270.2 780 3272.6 778.1 C 3274.1 776.9 3276 776 3277 776 C 3278 776 3279.9 776.9 3281.4 778.1 L 3284 780.1 L 3284 799.5 C 3284 822.7 3284.1 822.8 3293.8 823.7 C 3303.3 824.6 3303 825.3 3303 800.5 C 3303 774 3301.9 770.1 3292.7 764.9 C 3289.2 762.9 3286.9 762.5 3278.5 762.3 C 3272.4 762.1 3267.2 762.5 3265.2 763.3 Z M 3805.9 763.4 C 3800.4 765.3 3796.5 768.6 3794.4 772.7 C 3792.6 776.3 3792.5 780.5 3792.2 847.5 C 3792 897.4 3792.2 919.6 3793 922.3 C 3793.6 924.4 3795.7 927.9 3797.6 930 C 3802.6 935.5 3808.6 937.3 3820.4 936.8 C 3828.6 936.5 3830.2 936.2 3834.5 933.5 C 3837.5 931.6 3840.1 929 3841.4 926.5 C 3843.5 922.6 3843.5 921.3 3843.8 851.5 C 3844 802.9 3843.8 779.3 3843 776.8 C 3841.5 771.5 3837.4 767.1 3831.5 764.4 C 3827.5 762.5 3824.9 762 3818 762.1 C 3813.3 762.1 3807.9 762.7 3805.9 763.4 Z M 3822.4 778.1 L 3825 780.1 L 3825 918.9 L 3822.3 921 C 3819.1 923.5 3814.4 923.1 3812.3 920.3 C 3811.3 919 3811 903.2 3811 849.4 L 3811 780.1 L 3813.6 778.1 C 3815.1 776.9 3817 776 3818 776 C 3819 776 3820.9 776.9 3822.4 778.1 Z M 3923.2 763.3 C 3918 765.2 3912.9 769.9 3910.7 774.9 C 3909 778.9 3908.8 780.8 3909.3 791 C 3910.3 811.1 3913.7 823.5 3925.3 849 C 3937 875 3940.6 887.7 3941.7 907.1 L 3942.3 918.6 L 3939.4 920.9 C 3936.5 923.2 3931.8 923.2 3929.5 920.9 C 3928.9 920.3 3928.3 911.5 3928 899.4 C 3927.4 875.1 3927.9 876 3916.2 876 L 3908.9 876 L 3909.2 899.8 L 3909.5 923.7 L 3912.2 927.7 C 3916.4 934 3923.3 937 3933.8 937 C 3944.7 937 3949.4 935.5 3954.6 930.5 C 3960.3 925.1 3961.4 920.5 3960.6 906.5 C 3959.3 885 3955.9 873 3943.2 844.5 C 3934.3 824.4 3931.6 816.6 3929.5 804.2 C 3927.7 793.8 3927.5 781 3929.3 778.7 C 3931.4 775.9 3936.1 775.5 3939.3 778 L 3942 780.1 L 3942 799.5 C 3942 822.7 3942.1 822.8 3951.8 823.7 C 3961.3 824.6 3961 825.3 3961 801.1 C 3961 789.1 3960.5 778.8 3959.9 776.5 C 3958.4 771.3 3951.7 764.6 3946.5 763.1 C 3941.3 761.7 3927.4 761.8 3923.2 763.3 Z M 1917.6 765.5 C 1917.3 766.4 1917 804.4 1917 850 C 1917 926.8 1917.1 933 1918.7 934.6 C 1920.2 936.1 1922.2 936.2 1936 935.7 C 1944.5 935.4 1953.1 934.6 1955 934 C 1960.3 932.1 1964.8 928.3 1967 924 C 1968.9 920.2 1969 918 1969 849.8 L 1969 779.4 L 1966.8 775 C 1965.2 771.9 1963 769.6 1959.6 767.5 L 1954.7 764.5 L 1936.5 764.2 C 1920.3 763.9 1918.2 764.1 1917.6 765.5 Z M 1948.8 780.4 C 1950.4 781.9 1950.5 787.4 1950.5 849.6 L 1950.5 917.2 L 1948.1 919.1 C 1946.5 920.4 1944.2 921 1940.9 921 L 1936 921 L 1936 777.8 L 1941.6 778.2 C 1944.9 778.5 1947.8 779.3 1948.8 780.4 Z M 2034.7 764.7 C 2034.3 765 2034 803.3 2034 849.6 C 2034 932 2034 934 2035.9 935 C 2038 936.1 2071.7 936.4 2074.4 935.4 C 2076.9 934.4 2076.6 925.6 2074 923 C 2072.3 921.3 2070.7 921 2062.5 921 L 2053 921 L 2053 858 L 2060.8 858 C 2071.5 858 2073.2 856.7 2072.8 849.2 L 2072.5 843.5 L 2062.8 843.2 L 2053 842.9 L 2053 778 L 2062.9 778 C 2072.1 778 2073 777.8 2074.4 775.8 C 2075.3 774.5 2076 771.5 2076 768.8 L 2076 764 L 2055.7 764 C 2044.5 764 2035 764.3 2034.7 764.7 Z M 2134.7 765.2 C 2134.5 765.9 2137.9 804.1 2142.2 850 C 2148.8 918.4 2150.5 933.7 2151.8 934.8 C 2153.6 936.2 2167.7 936.4 2170 935.1 C 2171.1 934.3 2173.1 916.6 2179.2 853.8 C 2183.4 809.6 2186.9 771.4 2187 768.7 L 2187 764 L 2179.7 764 C 2173.5 764 2172 764.3 2170.5 766 C 2168.8 767.8 2168.2 774.4 2164.9 826.3 C 2162.8 858.3 2161 884.7 2160.9 885 C 2160.8 885.3 2159 859 2156.9 826.6 C 2153.6 775.9 2152.9 767.5 2151.4 765.9 C 2150 764.4 2148.3 764 2142.5 764 C 2137.6 764 2135.1 764.4 2134.7 765.2 Z M 2249.7 764.7 C 2249.3 765 2249 803.3 2249 849.6 C 2249 932 2249 934 2250.9 935 C 2253 936.1 2286.7 936.4 2289.4 935.4 C 2291.9 934.4 2291.6 925.6 2289 923 C 2287.3 921.3 2285.7 921 2277.5 921 L 2268 921 L 2268 858 L 2276 858 C 2286.3 858 2288.2 856.5 2287.8 848.7 L 2287.5 843.5 L 2277.8 843.2 L 2268 842.9 L 2268 778 L 2277.9 778 C 2287.1 778 2288 777.8 2289.4 775.8 C 2290.3 774.5 2291 771.5 2291 768.8 L 2291 764 L 2270.7 764 C 2259.5 764 2250 764.3 2249.7 764.7 Z M 2353 849.4 C 2353 926.3 2353.2 934.8 2354.6 935.4 C 2356.6 936.2 2390.4 936.2 2392.4 935.4 C 2393.6 934.9 2394 933.4 2394 929.5 C 2394 921.9 2392.6 921 2380.7 921 L 2371 921 L 2371 844.2 C 2371 755.3 2372.2 764 2360.2 764 L 2353 764 L 2353 849.4 Z M 2567.6 765.5 C 2567.3 766.4 2567 804.4 2567 850 C 2567 944.9 2566.1 936.6 2576.3 935.7 C 2586.5 934.8 2586 936.4 2586 901.3 L 2586 871 L 2594.3 871 C 2603 871 2610.5 868.5 2614.2 864.4 C 2618.8 859.2 2619 857.2 2619 817.2 C 2619 779.5 2619 779.3 2616.7 774.9 C 2615.1 772 2612.7 769.5 2609.5 767.5 L 2604.7 764.5 L 2586.5 764.2 C 2570.3 763.9 2568.2 764 2567.6 765.5 Z M 2598.8 780.4 C 2600.3 781.9 2600.5 785.6 2600.8 814.4 C 2601 836 2600.8 848.2 2600 851 C 2598.8 855.6 2596.4 857 2589.9 857 L 2586 857 L 2586 777.8 L 2591.6 778.2 C 2594.9 778.5 2597.8 779.3 2598.8 780.4 Z M 2684.7 764.7 C 2684.3 765 2684 803.3 2684 849.6 L 2684 933.9 L 2686.2 935.1 C 2689.3 936.8 2698.9 935.6 2701.3 933.2 C 2703.2 931.2 2703.2 930.6 2701.6 882.9 C 2700.7 856.3 2700 833.1 2700.1 831.5 C 2700.2 829.8 2702.8 851.1 2706 878.6 C 2709.2 906.2 2712.1 929.7 2712.4 930.7 C 2713.8 935.1 2723.4 936.9 2728.3 933.7 C 2729.7 932.8 2731 930.9 2731.3 929.3 C 2731.6 927.8 2734.2 904.9 2737.2 878.6 C 2740.1 852.2 2742.7 831.4 2742.8 832.4 C 2743 833.4 2742.4 855.8 2741.5 882.2 C 2739.7 935.4 2739.6 934.1 2746.1 935.4 C 2751.3 936.4 2756.7 936.1 2757.9 934.6 C 2758.7 933.6 2758.9 910.4 2758.8 848.9 L 2758.5 764.5 L 2750.1 764.2 C 2740.8 763.9 2739 764.7 2736.5 770.8 C 2734.3 775.9 2733.4 782.1 2727.4 835.5 C 2724.4 863 2721.8 885.6 2721.6 885.7 C 2721.5 885.8 2718.9 862.6 2715.7 834.1 C 2712.6 805.7 2709.3 779.7 2708.5 776.5 C 2707.6 773.2 2705.8 769.1 2704.4 767.3 C 2701.9 764 2701.8 764 2693.6 764 C 2689.1 764 2685 764.3 2684.7 764.7 Z M 2827 849.4 C 2827 926.3 2827.2 934.8 2828.6 935.4 C 2830.6 936.2 2864.4 936.2 2866.4 935.4 C 2867.6 934.9 2868 933.4 2868 929.5 C 2868 921.9 2866.6 921 2854.7 921 L 2845 921 L 2845 858 L 2852.8 858 C 2858.1 858 2861.2 857.5 2862.7 856.5 C 2865.2 854.8 2866.6 849.4 2865.6 845.5 C 2865 843 2864.8 843 2855 843 L 2845 843 L 2845 778 L 2854.8 778 C 2866.7 778 2868 777.1 2868 769.2 L 2868 764 L 2827 764 L 2827 849.4 Z M 2930 849.4 C 2930 943.8 2929.4 936 2936.3 936 C 2942.4 936 2946.9 934.1 2947.6 931.3 C 2948 929.9 2948.1 910.9 2947.8 889.1 L 2947.3 849.5 L 2955.4 890.8 C 2960.8 917.9 2964.1 932.6 2965.2 933.6 C 2966.1 934.5 2969.3 935.4 2972.7 935.7 C 2982.9 936.6 2982 945 2982 850 C 2982 804.4 2981.7 766.5 2981.4 765.6 C 2980.9 764.3 2979.2 764 2973.5 764 C 2961.8 764 2962.6 760.3 2963.3 811.3 C 2963.6 835 2963.7 854 2963.5 853.5 C 2962.8 851.9 2956.3 816.8 2951.9 791.1 C 2949.3 775.5 2947.4 767 2946.3 765.8 C 2945 764.4 2943.1 764 2937.3 764 L 2930 764 L 2930 849.4 Z M 3044.7 764.6 C 3043.6 765.7 3043.9 771.9 3045.1 774.3 C 3046.8 777.5 3047.9 778 3053.8 778 L 3059 778 L 3059 855.4 C 3059 924.3 3059.2 932.9 3060.6 934.1 C 3063.1 936.2 3072.6 936.5 3075.5 934.6 L 3078 933 L 3078 778 L 3083.5 778 C 3090.9 778 3093.2 775.8 3092.8 769.2 L 3092.5 764.5 L 3068.9 764.2 C 3056 764.1 3045.1 764.3 3044.7 764.6 Z M 3364.7 764.7 C 3363.6 765.7 3363.9 771.9 3365.1 774.3 C 3366.8 777.5 3367.9 778 3373.8 778 L 3379 778 L 3379 854.8 C 3379 917.7 3379.2 932 3380.4 933.5 C 3382.3 936.1 3392.1 936.8 3395.5 934.6 L 3398 933 L 3398 778 L 3403.5 778 C 3410.8 778 3413 775.9 3413 769 L 3413 764 L 3389.2 764 C 3376.1 764 3365 764.3 3364.7 764.7 Z M 3474.4 765.3 C 3474.2 766 3474.1 801.7 3474.2 844.5 C 3474.5 914.9 3474.7 922.8 3476.2 925.5 C 3480.5 933.4 3488 937 3500.5 937 C 3507.9 937 3510.4 936.6 3514.5 934.6 C 3520.3 931.9 3522.3 929.9 3524.5 924.7 C 3525.8 921.5 3526 910.9 3526 842.5 L 3526 764 L 3518.7 764 C 3506.3 764 3507.6 755 3507 843.4 C 3506.7 893.9 3506.2 920.3 3505.5 920.9 C 3504.9 921.5 3503 922.2 3501.3 922.6 C 3498.7 923.1 3497.6 922.7 3495.6 920.7 L 3493 918.1 L 3493 842.7 C 3493 755.5 3494.2 764 3482.1 764 C 3477.2 764 3474.8 764.4 3474.4 765.3 Z M 3591.7 764.6 C 3591.3 765 3591 803.2 3591 849.5 C 3591 923.7 3591.2 933.9 3592.5 935 C 3593.7 936 3598 936.2 3609.8 935.8 C 3623.1 935.4 3626.4 934.9 3630.5 933.1 C 3636.8 930.3 3638.8 928.5 3641.1 923.5 C 3642.8 919.7 3643 915.3 3643 849.4 L 3643 779.3 L 3640.7 774.9 C 3639.1 772 3636.7 769.5 3633.5 767.5 L 3628.7 764.5 L 3610.6 764.2 C 3600.6 764 3592.2 764.2 3591.7 764.6 Z M 3622.6 780.5 C 3623.8 782 3624 794.7 3624 849.5 C 3624 904.3 3623.8 917 3622.6 918.5 C 3621.7 919.8 3619.6 920.5 3615.6 920.8 L 3610 921.2 L 3610 777.8 L 3615.6 778.2 C 3619.6 778.5 3621.7 779.2 3622.6 780.5 Z M 3709.6 766.2 C 3708.2 768.2 3708 777.2 3708 850.6 C 3708 923.8 3708.2 932.9 3709.6 934.1 C 3712.1 936.2 3721.6 936.5 3724.5 934.6 L 3727 932.9 L 3726.8 848.7 L 3726.5 764.5 L 3718.8 764.2 C 3711.8 763.9 3711 764.1 3709.6 766.2 Z">
    </path>
</svg>