<svg preserveAspectRatio="none" xmlns="http://www.w3.org/2000/svg" viewBox="0 0 1440 320">
    <path fill="#090d12" fill-opacity="1" d="M0,224L15,234.7C30,245,60,267,90,240C120,213,150,139,180,117.3C210,96,240,128,270,128C300,128,330,96,360,85.3C390,75,420,85,450,112C480,139,510,181,540,186.7C570,192,600,160,630,128C660,96,690,64,720,64C750,64,780,96,810,106.7C840,117,870,107,900,133.3C930,160,960,224,990,240C1020,256,1050,224,1080,181.3C1110,139,1140,85,1170,74.7C1200,64,1230,96,1260,128C1290,160,1320,192,1350,186.7C1380,181,1410,139,1425,117.3L1440,96L1440,320L1425,320C1410,320,1380,320,1350,320C1320,320,1290,320,1260,320C1230,320,1200,320,1170,320C1140,320,1110,320,1080,320C1050,320,1020,320,990,320C960,320,930,320,900,320C870,320,840,320,810,320C780,320,750,320,720,320C690,320,660,320,630,320C600,320,570,320,540,320C510,320,480,320,450,320C420,320,390,320,360,320C330,320,300,320,270,320C240,320,210,320,180,320C150,320,120,320,90,320C60,320,30,320,15,320L0,320Z"></path>
    <path fill="none" stroke="#172424" stroke-width="4" d="M0,224L15,234.7C30,245,60,267,90,240C120,213,150,139,180,117.3C210,96,240,128,270,128C300,128,330,96,360,85.3C390,75,420,85,450,112C480,139,510,181,540,186.7C570,192,600,160,630,128C660,96,690,64,720,64C750,64,780,96,810,106.7C840,117,870,107,900,133.3C930,160,960,224,990,240C1020,256,1050,224,1080,181.3C1110,139,1140,85,1170,74.7C1200,64,1230,96,1260,128C1290,160,1320,192,1350,186.7C1380,181,1410,139,1425,117.3L1440,96"></path>
</svg>
