<svg xmlns="http://www.w3.org/2000/svg" xmlns:xlink="http://www.w3.org/1999/xlink" viewBox="0 0 430 430" width="430"
	height="430" preserveAspectRatio="xMidYMid meet"
	style="width: 100%; height: 100%; transform: translate3d(0px, 0px, 0px); content-visibility: visible;">
	<defs>
		<clipPath id="__lottie_element_229">
			<rect width="430" height="430" x="0" y="0"></rect>
		</clipPath>
		<clipPath id="__lottie_element_231">
			<path d="M0,0 L430,0 L430,430 L0,430z"></path>
		</clipPath>
		<g id="__lottie_element_239">
			<g transform="matrix(1,0,0,1,215,215)" opacity="1" style="display: block;">
				<g opacity="1" transform="matrix(1,0,0,1,0,0)">
					<path fill="rgb(255,0,0)" fill-opacity="1"
						d=" M144.94500732421875,14.956000328063965 C164.93699645996094,-5.035999774932861 174.97900390625,-31.257999420166016 174.97900390625,-57.4379997253418 C174.97900390625,-83.66000366210938 164.93699645996094,-109.88200378417969 144.94500732421875,-129.87399291992188 C127.88200378417969,-146.95399475097656 106.29499816894531,-156.7469940185547 84.03800201416016,-159.25 C54.13800048828125,-162.61300659179688 23.04400062561035,-152.82000732421875 0.11900000274181366,-129.87399291992188 C0.11900000274181366,-129.87399291992188 -0.004000000189989805,-129.7519989013672 -0.004000000189989805,-129.7519989013672 C-0.004000000189989805,-129.7519989013672 -0.12999999523162842,-129.87399291992188 -0.12999999523162842,-129.87399291992188 C-20.121999740600586,-149.86599731445312 -46.34400177001953,-159.9080047607422 -72.52400207519531,-159.9080047607422 C-98.74600219726562,-159.9080047607422 -124.96399688720703,-149.86599731445312 -144.95599365234375,-129.87399291992188 C-184.98500061035156,-89.88600158691406 -184.98500061035156,-25.031999588012695 -144.95599365234375,14.956000328063965 C-144.95599365234375,14.956000328063965 -0.004000000189989805,159.9080047607422 -0.004000000189989805,159.9080047607422 C-0.004000000189989805,159.9080047607422 144.94500732421875,14.956000328063965 144.94500732421875,14.956000328063965z">
					</path>
				</g>
			</g>
		</g>
		<g id="__lottie_element_242">
			<g transform="matrix(1,0,0,1,215,215)" opacity="1" style="display: block;">
				<g opacity="1" transform="matrix(1,0,0,1,0,0)">
					<path fill="rgb(255,0,0)" fill-opacity="1"
						d=" M144.94500732421875,14.956000328063965 C164.93699645996094,-5.035999774932861 174.97900390625,-31.257999420166016 174.97900390625,-57.4379997253418 C174.97900390625,-83.66000366210938 164.93699645996094,-109.88200378417969 144.94500732421875,-129.87399291992188 C127.88200378417969,-146.95399475097656 106.29499816894531,-156.7469940185547 84.03800201416016,-159.25 C54.13800048828125,-162.61300659179688 23.04400062561035,-152.82000732421875 0.11900000274181366,-129.87399291992188 C0.11900000274181366,-129.87399291992188 -0.004000000189989805,-129.7519989013672 -0.004000000189989805,-129.7519989013672 C-0.004000000189989805,-129.7519989013672 -0.12999999523162842,-129.87399291992188 -0.12999999523162842,-129.87399291992188 C-20.121999740600586,-149.86599731445312 -46.34400177001953,-159.9080047607422 -72.52400207519531,-159.9080047607422 C-98.74600219726562,-159.9080047607422 -124.96399688720703,-149.86599731445312 -144.95599365234375,-129.87399291992188 C-184.98500061035156,-89.88600158691406 -184.98500061035156,-25.031999588012695 -144.95599365234375,14.956000328063965 C-144.95599365234375,14.956000328063965 -0.004000000189989805,159.9080047607422 -0.004000000189989805,159.9080047607422 C-0.004000000189989805,159.9080047607422 144.94500732421875,14.956000328063965 144.94500732421875,14.956000328063965z">
					</path>
				</g>
			</g>
		</g>
		<mask id="__lottie_element_239_1" mask-type="alpha">
			<use xlink:href="#__lottie_element_239"></use>
		</mask>
		<mask id="__lottie_element_242_1" mask-type="alpha">
			<use xlink:href="#__lottie_element_242"></use>
		</mask>
	</defs>
	<g clip-path="url(#__lottie_element_229)">
		<g clip-path="url(#__lottie_element_231)" transform="matrix(1,0,0,1,0,0)" opacity="1" style="display: block;">
			<g mask="url(#__lottie_element_239_1)" style="display: block;">
				<g transform="matrix(0.9999954104423523,0,0,0.9999954104423523,214.95399475097656,190.0001220703125)"
					opacity="1">
					<g opacity="1" transform="matrix(1,0,0,1,0,0)">
						<path stroke-linecap="round" stroke-linejoin="round" fill-opacity="0" class="secondary"
							stroke="rgb(8,168,138)" stroke-opacity="1" stroke-width="18"
							d=" M-169.7050018310547,0 C-169.7050018310547,0 -100.04900360107422,0 -100.04900360107422,0 C-100.04900360107422,0 -78.76599884033203,60 -78.76599884033203,60 C-78.76599884033203,60 -44.71200180053711,-60 -44.71200180053711,-60 C-44.71200180053711,-60 -23.42799949645996,0 -23.42799949645996,0 C-23.42799949645996,0 24.518999099731445,0 24.518999099731445,0 C24.518999099731445,0 45.803001403808594,60 45.803001403808594,60 C45.803001403808594,60 79.85700225830078,-60 79.85700225830078,-60 C79.85700225830078,-60 101.14099884033203,0 101.14099884033203,0 C101.14099884033203,0 169.7050018310547,0 169.7050018310547,0">
						</path>
					</g>
				</g>
			</g>
			<g mask="url(#__lottie_element_242_1)" style="display: none;">
				<g transform="matrix(0.9999954104423523,0,0,0.9999954104423523,214.95399475097656,190.0001220703125)"
					opacity="1">
					<g opacity="1" transform="matrix(1,0,0,1,0,0)">
						<path stroke-linecap="round" stroke-linejoin="round" fill-opacity="0" class="secondary"
							stroke="rgb(8,168,138)" stroke-opacity="1" stroke-width="18"
							d=" M-169.7050018310547,0 C-169.7050018310547,0 -100.04900360107422,0 -100.04900360107422,0 C-100.04900360107422,0 -78.76599884033203,60 -78.76599884033203,60 C-78.76599884033203,60 -44.71200180053711,-60 -44.71200180053711,-60 C-44.71200180053711,-60 -23.42799949645996,0 -23.42799949645996,0 C-23.42799949645996,0 24.518999099731445,0 24.518999099731445,0 C24.518999099731445,0 45.803001403808594,60 45.803001403808594,60 C45.803001403808594,60 79.85700225830078,-60 79.85700225830078,-60 C79.85700225830078,-60 101.14099884033203,0 101.14099884033203,0 C101.14099884033203,0 169.7050018310547,0 169.7050018310547,0">
						</path>
					</g>
				</g>
			</g>
			<g transform="matrix(1,0,0,1,215,215)" opacity="1" style="display: block;">
				<g opacity="1" transform="matrix(1,0,0,1,0,0)">
					<path stroke-linecap="round" stroke-linejoin="round" fill-opacity="0" class="primary"
						stroke="rgb(18,19,49)" stroke-opacity="1" stroke-width="18"
						d=" M144.94500732421875,14.956000328063965 C164.93699645996094,-5.035999774932861 174.97900390625,-31.257999420166016 174.97900390625,-57.4379997253418 C174.97900390625,-83.66000366210938 164.93699645996094,-109.88200378417969 144.94500732421875,-129.87399291992188 C127.88200378417969,-146.95399475097656 106.29499816894531,-156.7469940185547 84.03800201416016,-159.25 C54.13800048828125,-162.61300659179688 23.04400062561035,-152.82000732421875 0.11900000274181366,-129.87399291992188 C0.11900000274181366,-129.87399291992188 -0.004000000189989805,-129.7519989013672 -0.004000000189989805,-129.7519989013672 C-0.004000000189989805,-129.7519989013672 -0.12999999523162842,-129.87399291992188 -0.12999999523162842,-129.87399291992188 C-20.121999740600586,-149.86599731445312 -46.34400177001953,-159.9080047607422 -72.52400207519531,-159.9080047607422 C-98.74600219726562,-159.9080047607422 -124.96399688720703,-149.86599731445312 -144.95599365234375,-129.87399291992188 C-184.98500061035156,-89.88600158691406 -184.98500061035156,-25.031999588012695 -144.95599365234375,14.956000328063965 C-144.95599365234375,14.956000328063965 -0.004000000189989805,159.9080047607422 -0.004000000189989805,159.9080047607422 C-0.004000000189989805,159.9080047607422 144.94500732421875,14.956000328063965 144.94500732421875,14.956000328063965z">
					</path>
				</g>
			</g>
		</g>
	</g>
</svg>